<svg width="100" height="100" viewBox="0 0 100 100" fill="none" xmlns="http://www.w3.org/2000/svg">
  <defs>
    <linearGradient id="logo-circle-grad" x1="0%" y1="0%" x2="100%" y2="100%">
      <stop offset="0%" stop-color="#00c6ff" />
      <stop offset="100%" stop-color="#003bde" />
    </linearGradient>
    <linearGradient id="logo-bar-grad" x1="0%" y1="0%" x2="0%" y2="100%">
      <stop offset="0%" stop-color="#0055ff" />
      <stop offset="100%" stop-color="#0a2240" />
    </linearGradient>
  </defs>
  <path 
    d="M 72 65 A 32 32 0 1 0 65 72" 
    stroke="url(#logo-circle-grad)" 
    stroke-width="8" 
    stroke-linecap="round" 
    fill="none" 
  />
  <rect 
    x="62" 
    y="66" 
    width="10" 
    height="26" 
    rx="5" 
    transform="rotate(-45 62 66)" 
    fill="#003bde" 
  />
  <path 
    d="M 23 58 C 35 63, 55 63, 67 58 C 55 56, 35 56, 23 58 Z" 
    fill="url(#logo-circle-grad)" 
  />
  <path 
    d="M 28 56 L 28 42 L 34 39 L 34 56 Z" 
    fill="url(#logo-bar-grad)" 
  />
  <path 
    d="M 37 56 L 37 32 L 44 29 L 44 56 Z" 
    fill="url(#logo-bar-grad)" 
  />
  <path 
    d="M 47 56 L 47 24 L 55 21 L 55 56 Z" 
    fill="url(#logo-bar-grad)" 
  />
</svg>